<svg width="68" height="34" viewBox="0 0 68 34" fill="none" xmlns="http://www.w3.org/2000/svg">
<rect width="68.0002" height="34" fill="white"/>
<path d="M66.8822 32.8821H1.11807V1.11792H66.8822V32.8821ZM68.0001 0H0.000153358V34H68.0001V0Z" fill="#222222"/>
<path d="M11.0179 9.31834H8.93439V8.32554H14.233V9.31834H12.1331V14.6876H11.0179V9.31834Z" fill="#222222"/>
<path d="M19.7214 14.6847H18.5355L17.9289 13.1289H15.1871L14.5724 14.6847H13.4219L16.0303 8.32265H17.1211L19.7214 14.6847ZM17.5699 12.2177L17.1999 11.2602C16.9796 10.689 16.7702 10.126 16.5662 9.55481H16.5499C16.3377 10.1423 16.1364 10.689 15.9161 11.2602L15.5462 12.2177H17.5699Z" fill="#222222"/>
<path d="M20.2487 8.32554H21.3639V13.6948H24.2553V14.6876H20.2487V8.32554Z" fill="#222222"/>
<path d="M24.843 8.32616H25.9582V11.174L25.9745 11.1822L28.4797 8.32616H29.8233L27.1958 11.2774L30.0518 14.6855H28.6456L25.9745 11.4514L25.9582 11.4596V14.6828H24.843V8.32072V8.32616Z" fill="#222222"/>
<path d="M34.866 9.31831H32.7825V8.32551H38.0811V9.31831H35.9812V14.6876H34.866V9.31831Z" fill="#222222"/>
<path d="M38.1465 11.5049C38.1465 9.64991 39.5527 8.22734 41.4241 8.22734C43.2954 8.22734 44.7017 9.64991 44.7017 11.5049C44.7017 13.36 43.2954 14.7825 41.4241 14.7825C39.5527 14.7825 38.1465 13.36 38.1465 11.5049ZM43.5838 11.5049C43.5838 10.2401 42.6617 9.24734 41.4214 9.24734C40.181 9.24734 39.259 10.2401 39.259 11.5049C39.259 12.7697 40.181 13.7625 41.4214 13.7625C42.6617 13.7625 43.5838 12.7697 43.5838 11.5049Z" fill="#222222"/>
<path d="M47.68 8.32615H48.7598L50.8325 11.2882L52.9051 8.32615H53.9686V14.6882H52.8534V11.5439C52.8534 11.0597 52.8534 10.6028 52.8616 10.1649L52.8453 10.1567C52.5814 10.562 52.3013 10.9564 52.0021 11.3861L50.808 13.0916L49.6139 11.3861C49.3147 10.9564 49.0345 10.5593 48.7707 10.1567L48.7544 10.1649C48.7626 10.6028 48.7626 11.0597 48.7626 11.5439V14.6882H47.6827V8.32615H47.68Z" fill="#222222"/>
<path d="M55.1791 8.3255H58.9762V9.3183H56.297V10.8986H58.6253V11.8479H56.297V13.6921H59.066V14.6849H55.1818V8.32278L55.1791 8.3255Z" fill="#222222"/>
<path d="M11.022 19.313H12.1372V25.6751H11.022V19.313Z" fill="#222222"/>
<path d="M13.6203 25.6751V19.313H14.6757L16.9768 22.3784C17.3712 22.9061 17.7411 23.4066 18.111 23.9152L18.1301 23.9071C18.111 23.3087 18.111 22.6586 18.111 21.984V19.313H19.1909V25.6751H18.1355L15.8344 22.6096C15.44 22.0819 15.0701 21.5815 14.7001 21.0728L14.6838 21.081C14.7001 21.6794 14.7001 22.3295 14.7001 23.004V25.6751H13.6203Z" fill="#222222"/>
<path d="M23.0319 19.3189H24.1471V22.1667L24.1661 22.1749L26.6712 19.3189H28.0149L25.3874 22.2701L28.2434 25.6782H26.8372L24.1661 22.4441L24.1471 22.4523V25.6755H23.0319V19.3134V19.3189Z" fill="#222222"/>
<path d="M28.2048 22.4958C28.2048 20.6407 29.6111 19.2182 31.4824 19.2182C33.3538 19.2182 34.76 20.6407 34.76 22.4958C34.76 24.3508 33.3538 25.7733 31.4824 25.7733C29.6111 25.7733 28.2048 24.3508 28.2048 22.4958ZM33.6448 22.4958C33.6448 21.231 32.7228 20.2381 31.4824 20.2381C30.2421 20.2381 29.32 21.231 29.32 22.4958C29.32 23.7605 30.2421 24.7534 31.4824 24.7534C32.7228 24.7534 33.6448 23.7605 33.6448 22.4958Z" fill="#222222"/>
<path d="M35.9349 19.3144H37.7899C38.44 19.3144 39.0738 19.3579 39.5743 19.6299C40.0938 19.9101 40.4882 20.4214 40.4882 21.1776C40.4882 22.0398 39.9687 22.7062 39.0738 22.9266L40.9887 25.6765H39.6804L37.9069 23.049H37.0556V25.6765H35.9404V19.3144H35.9349ZM37.9368 22.1894C38.4455 22.1894 38.7882 22.1187 39.0439 21.9338C39.2452 21.7842 39.3703 21.5638 39.3703 21.2483C39.3703 20.8702 39.1935 20.6336 38.9133 20.484C38.6332 20.3344 38.2796 20.3072 37.7274 20.3072H37.0501V22.1867H37.9368V22.1894Z" fill="#222222"/>
<path d="M41.802 19.3176H45.5991V20.3104H42.9199V21.8907H45.2482V22.84H42.9199V24.6842H45.6889V25.677H41.8047V19.3149L41.802 19.3176Z" fill="#222222"/>
<path d="M52.666 25.6765H51.4801L50.8735 24.1206H48.1317L47.517 25.6765H46.3665L48.9749 19.3144H50.0657L52.666 25.6765ZM50.5145 23.2067L50.1445 22.2493C49.9242 21.6781 49.7148 21.115 49.5108 20.5438H49.4945C49.2823 21.1314 49.081 21.6781 48.8607 22.2493L48.4908 23.2067H50.5145Z" fill="#222222"/>
<path d="M53.4955 25.6765V19.3144H54.5509L56.852 22.3798C57.2464 22.9075 57.6163 23.408 57.9862 23.9166L58.0053 23.9085C57.9862 23.3101 57.9862 22.66 57.9862 21.9854V19.3144H59.0661V25.6765H58.0107L55.7096 22.611C55.3152 22.0834 54.9453 21.5829 54.5754 21.0742L54.559 21.0824C54.5754 21.6808 54.5754 22.3309 54.5754 23.0054V25.6765H53.4955Z" fill="#222222"/>
<path d="M68.0002 24.5751V25.6759H58.0195V24.5751H68.0002Z" fill="#222222"/>
<path d="M12.1393 13.5876V14.6883H0L4.81153e-08 13.5876H12.1393Z" fill="#222222"/>
</svg>
