<svg width="46" height="46" viewBox="0 0 46 46" fill="none" xmlns="http://www.w3.org/2000/svg">
<g filter="url(#filter0_d_1651_11376)">
<rect x="2.75" y="0.75" width="40" height="40" rx="20" fill="white"/>
<rect x="2.375" y="0.375" width="40.75" height="40.75" rx="20.375" stroke="#36454D" stroke-width="0.75"/>
<path d="M13.4167 23.5115V17.9871C13.4167 17.4514 13.8349 17.0164 14.3501 17.0164H17.697C17.8205 17.016 17.9427 16.9905 18.0561 16.9416C18.1695 16.8927 18.2718 16.8213 18.3569 16.7318L21.1569 13.5696C21.7449 12.9574 22.7501 13.3914 22.7501 14.2566V27.243C22.7501 28.1147 21.7327 28.545 21.1485 27.9206L18.3578 24.7762C18.2725 24.6841 18.1691 24.6105 18.0542 24.5601C17.9392 24.5097 17.8151 24.4835 17.6895 24.4831H14.3501C13.8349 24.4831 13.4167 24.0482 13.4167 23.5115Z" stroke="#36454D" stroke-width="1.6" stroke-linecap="round" stroke-linejoin="round"/>
<path d="M31.2232 18.612L29.0856 20.7497M29.0856 20.7497L26.9479 22.8873M29.0856 20.7497L31.2232 22.8873M29.0856 20.7497L26.9479 18.612" stroke="#FF5E23" stroke-width="1.6" stroke-linecap="round"/>
</g>
<defs>
<filter id="filter0_d_1651_11376" x="0" y="0" width="45.5" height="45.5" filterUnits="userSpaceOnUse" color-interpolation-filters="sRGB">
<feFlood flood-opacity="0" result="BackgroundImageFix"/>
<feColorMatrix in="SourceAlpha" type="matrix" values="0 0 0 0 0 0 0 0 0 0 0 0 0 0 0 0 0 0 127 0" result="hardAlpha"/>
<feMorphology radius="2" operator="erode" in="SourceAlpha" result="effect1_dropShadow_1651_11376"/>
<feOffset dy="2"/>
<feGaussianBlur stdDeviation="2"/>
<feComposite in2="hardAlpha" operator="out"/>
<feColorMatrix type="matrix" values="0 0 0 0 0 0 0 0 0 0 0 0 0 0 0 0 0 0 0.1 0"/>
<feBlend mode="plus-darker" in2="BackgroundImageFix" result="effect1_dropShadow_1651_11376"/>
<feBlend mode="normal" in="SourceGraphic" in2="effect1_dropShadow_1651_11376" result="shape"/>
</filter>
</defs>
</svg>
