<svg preserveAspectRatio="none" overflow="visible" style="display: block;" width="18" height="15.0206" viewBox="0 0 18 15.0206" fill="none" xmlns="http://www.w3.org/2000/svg">
<g id="Group 487154">
<path id="Line 79" d="M1 7.51129L17 7.51128" stroke="#36454D" stroke-width="2" stroke-linecap="round" stroke-linejoin="round"/>
<path id="Rectangle 1408" d="M11.3326 0.295912C10.9462 -0.0986373 10.3196 -0.0986373 9.93314 0.295912C9.54668 0.690461 9.54668 1.33015 9.93314 1.7247L10.6329 1.01031L11.3326 0.295912ZM16.9996 7.51031L17.6993 8.2247C18.0858 7.83015 18.0858 7.19046 17.6993 6.79591L16.9996 7.51031ZM9.93314 13.2959C9.54668 13.6905 9.54668 14.3302 9.93314 14.7247C10.3196 15.1193 10.9462 15.1193 11.3326 14.7247L10.6329 14.0103L9.93314 13.2959ZM10.6329 1.01031L9.93314 1.7247L16.2998 8.2247L16.9996 7.51031L17.6993 6.79591L11.3326 0.295912L10.6329 1.01031ZM16.9996 7.51031L16.2998 6.79591L9.93314 13.2959L10.6329 14.0103L11.3326 14.7247L17.6993 8.2247L16.9996 7.51031Z" fill="#36454D"/>
</g>
</svg>
